P3
# Created by GIMP version 2.10.38 PNM plug-in
50 50
255
207
122
1
185
106
1
133
69
1
112
56
2
70
37
1
56
41
42
44
78
125
16
109
178
3
129
205
5
136
211
6
136
211
7
136
211
4
136
211
4
135
211
4
136
211
4
135
211
4
136
211
4
136
211
4
135
211
5
135
211
3
135
210
3
135
210
3
135
210
5
135
211
3
135
210
3
136
213
7
135
213
5
136
211
6
135
211
6
135
211
6
136
212
7
135
212
5
136
213
3
136
212
5
136
211
7
136
212
10
136
212
8
136
212
6
136
213
9
136
212
10
137
212
8
136
212
8
136
212
10
136
212
8
137
212
6
136
212
7
137
213
7
137
213
8
136
212
7
136
211
212
126
1
188
108
1
136
72
1
106
54
1
76
40
1
61
42
36
48
69
108
28
101
167
7
125
199
3
134
209
4
135
210
6
135
211
5
136
211
7
135
211
4
135
211
3
135
210
7
135
211
4
135
210
6
135
211
5
135
211
4
135
210
4
135
210
4
135
210
8
135
212
3
135
210
3
135
211
4
136
210
7
136
211
11
136
212
5
136
211
5
136
212
6
136
212
7
136
212
7
136
212
7
136
212
11
136
213
9
136
212
8
136
212
8
136
212
9
136
212
8
136
212
10
137
212
12
136
212
12
136
213
10
136
213
5
137
212
7
137
213
6
137
212
8
136
212
10
136
212
205
125
1
189
112
1
152
85
1
116
64
2
86
48
1
67
41
19
54
60
83
36
95
152
12
119
190
3
132
207
4
136
211
4
135
211
4
135
211
5
135
211
4
136
211
4
135
211
7
135
211
5
135
210
7
135
211
5
135
211
4
135
210
4
135
210
5
135
211
3
134
210
3
135
210
4
135
210
9
135
212
9
135
212
5
135
211
7
135
212
8
136
212
9
135
212
10
136
212
8
136
211
8
136
212
10
136
212
9
136
212
15
136
214
12
136
212
7
136
211
10
136
212
13
136
212
10
137
212
7
136
212
6
137
212
8
136
213
9
136
213
5
136
212
9
137
212
12
136
213
208
135
1
190
118
1
157
91
1
136
78
1
96
56
1
72
43
3
60
51
53
42
85
134
18
113
183
3
130
206
5
136
211
5
136
211
4
136
211
3
136
211
5
135
211
3
135
210
3
135
210
5
135
211
3
135
210
4
134
210
3
135
210
4
135
210
3
135
210
3
135
210
2
135
210
4
134
210
5
135
211
4
135
211
6
135
211
5
135
211
7
136
211
9
135
212
6
136
212
6
136
211
7
136
211
6
136
212
6
136
211
8
137
212
10
136
212
6
137
211
7
137
211
8
137
212
9
136
212
7
136
212
10
137
212
8
136
212
5
137
212
7
137
212
9
136
213
11
137
213
206
139
2
187
122
1
156
93
1
137
82
1
107
65
1
86
52
1
66
48
37
46
77
119
22
108
175
2
130
204
3
136
211
5
136
211
6
135
212
5
135
211
6
135
211
3
135
210
3
135
210
4
134
210
4
135
210
3
135
210
4
134
210
10
133
209
25
132
204
33
132
202
12
134
209
4
135
211
6
134
211
5
136
211
6
135
211
5
136
212
6
136
211
8
135
210
7
136
211
7
136
212
7
136
212
8
136
212
8
136
212
7
137
212
8
137
212
8
136
212
7
137
212
8
137
212
9
137
212
5
137
213
14
137
212
13
136
213
8
136
212
9
137
212
12
137
212
19
136
212
202
137
1
181
118
1
150
92
1
127
78
1
112
70
0
96
61
1
72
49
27
50
74
108
29
107
170
7
127
202
3
135
210
4
136
211
4
136
212
7
134
211
3
135
210
3
135
210
3
135
210
3
135
210
4
135
210
22
133
207
79
127
181
102
113
140
96
102
123
90
100
127
77
108
138
60
137
180
13
135
208
7
135
211
3
135
210
4
135
211
6
136
212
8
136
211
8
136
211
8
136
211
7
136
211
6
137
212
7
136
212
9
136
212
9
137
212
9
136
212
10
137
212
8
137
212
8
137
212
8
136
212
11
136
212
9
137
212
12
136
213
12
137
213
18
136
212
23
136
210
198
132
1
164
107
1
127
77
1
112
69
1
109
69
1
100
64
1
75
49
17
54
69
98
36
103
162
9
125
197
4
134
209
7
136
211
4
136
211
5
136
211
3
135
210
4
135
210
4
135
210
4
135
210
62
130
193
109
122
155
127
124
144
126
127
148
107
108
134
115
114
107
159
162
16
145
152
25
93
118
106
59
126
167
8
135
208
4
135
210
5
135
211
5
135
211
3
136
210
4
136
211
6
135
212
7
136
212
7
137
211
7
136
211
8
136
213
10
136
212
9
137
212
8
137
212
8
137
212
7
137
212
11
136
212
13
136
213
12
136
213
18
136
212
23
136
210
32
136
208
200
129
1
163
106
1
122
74
1
108
66
1
110
70
1
98
63
1
69
47
9
55
62
77
41
98
152
18
122
193
4
133
208
8
136
210
5
136
211
5
135
210
4
134
210
2
135
210
13
135
210
78
126
184
118
124
152
116
116
137
110
106
123
94
98
120
95
102
129
146
135
65
170
165
8
107
102
11
97
91
11
59
80
45
23
116
167
6
132
207
4
135
210
5
135
211
4
136
211
5
136
212
8
136
212
7
136
211
7
136
211
12
137
212
12
136
212
11
136
212
8
137
212
12
137
213
10
137
212
11
137
213
11
137
213
13
136
213
19
136
212
27
136
210
33
136
208
41
136
207
195
124
1
165
106
1
130
80
1
116
70
1
111
70
1
94
64
1
75
55
3
63
65
69
47
95
144
23
118
187
7
131
205
8
135
211
8
135
211
4
135
210
3
135
210
4
134
210
71
124
182
106
114
145
118
102
111
124
87
92
94
100
129
95
102
129
109
107
117
180
166
23
171
161
6
139
135
9
146
147
10
67
102
23
41
88
27
15
106
163
4
134
210
2
135
210
3
135
210
4
135
211
5
136
211
7
136
211
7
136
211
7
137
212
8
136
213
10
136
212
9
137
212
13
136
213
11
137
213
13
137
213
15
137
213
21
137
212
26
136
210
36
136
209
43
136
206
48
135
204
192
124
1
170
110
1
150
98
1
137
89
1
122
81
1
109
77
1
92
69
2
73
66
52
58
88
123
37
112
175
17
128
200
13
133
210
8
135
211
6
135
211
3
135
210
32
128
198
66
80
108
72
68
88
132
82
74
144
81
78
120
117
135
121
117
130
119
104
110
191
175
49
210
187
6
181
170
6
131
132
15
66
97
40
75
128
33
26
68
27
11
106
149
5
134
210
6
135
210
6
135
211
4
136
211
9
136
212
10
136
211
11
136
212
10
137
212
10
137
212
12
137
213
12
137
213
11
137
213
14
137
213
19
136
213
30
136
210
35
136
208
42
136
206
48
136
203
52
135
199
198
131
1
191
130
1
180
123
1
159
108
1
136
94
1
126
91
1
110
81
1
88
70
31
72
83
102
52
106
159
33
122
190
18
130
204
4
134
209
3
135
210
3
135
210
54
116
173
95
86
82
90
84
101
95
85
99
114
109
133
123
124
149
132
125
143
127
114
115
170
157
83
218
187
8
203
177
6
128
127
28
71
94
45
77
119
32
73
130
20
17
61
19
14
110
169
3
134
210
3
135
210
5
135
211
6
136
211
8
136
211
8
136
212
8
136
212
8
136
212
13
136
213
12
137
213
13
136
213
17
137
212
28
137
211
35
136
209
41
137
206
48
136
203
56
136
200
61
135
196
208
142
1
202
143
0
193
135
1
164
113
1
140
95
1
129
89
1
121
84
1
102
73
6
81
76
72
63
97
135
44
116
178
21
128
199
9
133
208
6
134
210
6
135
211
173
131
148
223
130
76
123
102
128
82
84
116
108
109
147
107
116
150
117
119
148
119
112
117
177
162
56
218
192
7
180
165
14
88
88
34
69
98
29
55
98
14
53
71
18
37
50
26
16
62
77
13
124
190
4
134
210
3
135
210
5
136
211
6
136
211
9
136
212
10
136
212
6
137
211
14
136
213
12
137
212
18
136
213
27
136
210
37
137
208
42
137
206
49
136
203
55
136
198
61
135
195
66
134
191
211
144
1
202
140
1
190
133
1
150
103
1
122
81
1
120
81
1
117
81
1
106
76
3
87
75
52
71
92
119
50
111
168
28
124
194
12
131
205
7
134
210
14
135
211
236
136
96
252
124
10
200
129
121
99
103
143
101
104
150
101
103
138
115
117
158
112
107
127
130
122
53
178
153
13
128
127
17
84
98
31
62
90
20
60
59
9
69
64
12
60
62
27
54
61
28
24
47
41
17
95
140
13
132
205
3
135
211
10
135
211
8
135
211
10
136
212
9
137
212
12
136
212
19
136
212
28
136
211
35
137
209
43
137
206
46
136
204
53
135
200
60
135
194
66
134
191
70
133
187
202
133
2
198
133
1
192
128
1
175
114
1
147
98
1
130
92
1
117
84
0
101
74
3
85
77
51
70
94
117
52
112
165
32
124
194
16
131
205
8
135
211
9
135
210
226
129
92
231
125
9
228
110
76
124
114
141
94
101
142
90
92
132
100
95
132
97
88
101
123
103
67
210
148
27
183
107
14
83
94
34
94
92
24
94
76
12
80
83
14
139
94
7
195
125
9
152
91
22
83
79
21
27
69
82
15
123
188
8
136
211
9
135
211
9
136
212
11
136
212
15
136
212
24
137
211
33
137
208
40
137
206
45
137
204
50
135
200
59
135
196
65
134
192
69
132
186
74
130
180
183
113
1
191
120
1
205
132
1
205
135
1
185
127
1
149
107
1
118
88
1
97
77
5
82
77
55
71
94
117
53
113
167
29
126
196
11
132
206
10
134
211
8
135
211
158
140
163
149
121
133
88
110
166
63
115
173
87
99
135
88
83
106
105
86
113
120
80
86
159
87
39
240
121
8
223
93
9
202
108
17
201
121
6
205
123
7
229
137
4
234
143
4
235
133
3
231
126
4
217
121
5
144
89
14
152
88
79
16
125
195
5
136
211
9
136
212
16
135
212
18
136
212
30
136
210
36
137
206
45
136
205
50
135
201
56
135
197
63
134
191
69
132
187
74
130
180
82
128
175
160
94
1
186
113
1
214
137
1
216
145
0
196
136
2
155
112
1
118
89
0
95
77
17
83
84
82
66
104
143
46
117
178
27
127
199
8
133
208
8
136
211
8
135
211
11
135
210
66
133
193
7
136
211
6
135
211
32
128
197
119
107
135
157
88
84
230
93
25
235
99
27
243
113
12
244
107
2
243
133
5
241
123
3
241
127
5
242
111
3
249
138
3
227
114
4
237
119
3
237
110
4
215
121
4
107
74
40
44
65
75
17
121
189
14
135
210
17
136
210
24
137
209
35
136
207
45
136
206
51
136
202
58
135
198
65
134
193
69
133
187
75
131
181
83
128
174
95
126
167
146
83
5
169
102
1
204
134
1
209
144
1
187
133
2
145
104
1
112
83
1
95
76
40
82
90
105
62
109
160
36
125
193
16
131
205
6
135
209
6
136
211
9
136
211
5
135
211
5
135
210
7
136
211
4
135
210
6
135
210
135
124
162
219
105
60
248
112
25
249
100
14
251
116
13
250
103
4
250
126
3
231
83
5
248
113
4
247
120
3
249
128
3
233
121
4
229
87
5
249
106
3
213
108
5
175
127
12
34
68
33
20
62
65
16
127
197
23
136
209
33
135
207
40
136
205
49
136
202
57
135
199
63
134
193
68
133
188
73
132
181
79
129
175
87
126
167
101
123
157
136
82
21
146
95
21
172
122
21
176
131
1
167
127
1
138
99
1
117
80
2
101
77
47
89
95
118
65
114
170
31
128
198
11
133
209
7
135
211
8
136
211
8
136
211
7
135
211
5
136
211
8
135
210
8
135
211
9
135
211
82
129
197
224
95
44
251
83
18
247
81
19
243
70
5
233
67
5
237
60
4
219
82
5
252
113
4
243
90
4
247
107
4
232
115
4
239
111
12
250
88
4
216
110
5
166
119
13
41
67
21
30
65
24
33
88
114
32
135
207
38
135
205
46
135
202
54
135
198
62
134
195
67
133
189
72
131
183
77
129
177
82
127
168
91
123
159
121
123
145
123
77
21
125
89
30
153
121
33
170
135
6
176
138
1
157
112
1
140
97
1
114
83
45
96
98
119
73
118
174
44
130
200
17
135
211
7
137
212
10
136
212
9
135
211
8
137
212
6
136
211
5
136
211
6
136
211
10
135
211
17
134
211
225
111
84
249
86
5
215
55
6
235
60
6
242
48
4
229
60
8
249
110
4
249
98
4
250
127
5
250
123
3
241
100
5
242
80
12
228
66
3
185
79
5
154
86
5
65
64
8
35
63
16
37
73
31
39
120
178
41
134
203
49
134
199
57
134
195
64
133
191
71
132
184
74
130
178
80
127
170
84
124
160
100
123
149
136
126
132
96
66
9
101
75
16
140
113
18
175
138
3
190
147
1
175
129
1
155
114
24
121
93
69
96
103
132
70
120
178
47
130
200
20
135
211
10
137
212
7
136
211
10
136
212
6
136
211
11
135
212
8
136
211
9
136
211
6
135
211
13
135
211
221
114
100
249
98
6
246
94
6
253
74
3
248
55
4
251
67
3
248
82
4
237
93
7
251
94
4
245
85
4
219
73
6
205
49
6
174
30
5
197
66
6
184
124
17
42
67
15
28
52
16
38
72
22
41
93
116
45
133
200
52
133
197
60
133
192
68
132
187
74
130
179
77
129
173
81
125
164
86
123
153
107
123
142
141
127
127
84
56
9
81
60
2
130
97
1
167
125
1
190
142
1
176
131
6
155
120
58
115
105
109
87
115
159
62
126
190
41
133
205
17
136
211
8
136
211
8
136
211
12
136
212
6
136
211
8
136
211
9
136
212
11
136
212
12
136
212
17
135
212
204
118
126
252
89
3
242
79
6
247
60
5
253
72
2
251
47
4
244
73
7
244
109
6
248
89
9
232
54
4
187
41
9
175
45
10
153
24
7
200
74
13
117
103
48
27
41
12
33
58
6
33
68
16
39
71
39
51
128
188
56
132
194
62
132
189
70
131
183
76
130
175
82
128
166
85
124
158
92
122
146
109
121
131
140
122
117
83
54
35
70
48
2
120
80
1
152
105
1
177
125
1
163
118
6
142
114
77
101
110
138
68
121
179
43
132
201
22
135
211
10
137
212
12
137
213
11
136
212
9
136
212
11
136
212
11
136
212
11
136
211
15
136
211
14
135
213
11
136
212
152
126
168
249
89
4
237
94
10
251
101
6
250
71
3
249
52
3
235
68
6
238
77
10
243
56
4
192
42
7
159
26
9
117
29
19
107
12
6
157
64
14
112
61
44
25
39
26
33
57
8
36
63
10
39
68
26
47
98
126
59
132
191
66
131
185
74
131
179
80
129
171
87
127
162
91
124
152
96
121
139
110
118
123
136
115
104
93
69
72
78
48
18
109
65
5
133
86
17
154
106
29
141
105
51
123
103
94
90
109
149
57
123
187
34
134
207
14
137
212
14
136
213
14
137
214
13
136
213
11
137
213
12
136
213
15
136
213
16
135
213
14
136
212
13
135
212
14
136
213
63
134
202
233
104
49
243
92
13
251
95
5
251
87
5
245
59
4
240
47
6
228
58
8
203
45
13
175
25
9
103
10
10
80
7
20
119
17
14
101
29
22
119
56
26
81
80
47
27
55
17
42
66
7
42
74
23
42
68
51
66
129
182
72
131
182
79
130
174
85
129
167
91
126
156
94
123
144
98
118
129
111
115
113
133
110
92
108
90
102
95
66
48
93
59
38
110
72
57
120
90
84
108
97
109
96
103
136
73
113
169
53
122
191
36
132
206
19
137
211
13
137
213
11
136
212
13
137
213
10
137
212
8
137
212
13
137
213
14
136
213
10
137
212
8
137
212
13
136
213
16
136
212
151
115
137
247
72
8
228
61
9
220
63
21
215
45
18
195
40
20
182
38
41
127
19
35
70
10
24
34
6
19
34
8
19
39
17
32
58
38
57
80
51
43
105
88
35
26
56
26
41
68
6
48
75
19
42
68
23
66
116
153
76
131
177
83
129
170
88
127
161
93
125
149
97
120
136
99
117
121
111
112
103
135
109
84
130
112
112
112
87
68
89
67
61
87
65
72
89
81
107
83
101
144
74
110
164
54
119
185
45
126
197
36
131
205
25
136
212
17
136
212
14
136
213
13
137
214
13
136
213
12
136
212
17
136
213
16
136
213
15
136
214
13
136
213
13
136
213
14
135
212
54
123
184
187
72
24
166
46
24
68
53
83
70
50
65
56
37
49
41
34
52
21
22
45
10
11
28
5
2
10
16
8
17
23
14
30
49
29
30
65
31
23
71
51
11
50
68
36
35
68
10
39
65
17
47
73
26
65
107
130
79
129
172
85
127
164
90
125
155
95
122
142
98
118
128
102
114
112
112
110
95
134
109
76
157
133
115
130
108
76
93
79
66
73
63
71
68
76
108
68
99
150
58
113
175
46
123
192
36
130
203
29
133
207
25
136
211
16
137
214
14
137
212
16
137
212
14
137
212
17
136
212
21
135
213
20
136
213
17
136
212
17
136
211
18
136
212
16
136
211
41
134
204
58
59
71
54
58
89
49
63
99
38
58
89
30
48
79
24
32
56
24
37
68
8
13
31
3
3
13
10
2
6
22
10
21
15
8
20
40
15
13
48
18
5
51
58
34
42
69
18
37
67
6
44
74
19
63
98
105
82
128
168
87
125
158
91
123
146
95
119
134
99
116
120
102
111
104
113
108
87
128
107
68
168
140
113
143
121
79
99
89
62
68
66
67
64
70
95
67
93
138
57
114
173
48
122
191
33
131
204
29
135
210
21
136
213
17
137
214
16
137
213
18
136
213
19
136
213
20
137
210
20
137
210
23
137
211
26
136
211
26
137
210
25
137
210
34
136
210
82
133
202
78
83
124
57
69
97
53
73
115
36
59
95
28
47
73
26
33
53
28
34
55
18
30
51
5
6
19
11
7
19
36
20
36
46
21
33
29
17
18
50
30
9
40
36
23
45
59
27
44
71
5
45
72
8
60
92
80
85
127
164
88
123
153
92
120
140
96
116
125
97
112
110
103
108
95
108
106
80
121
103
63
168
147
127
147
128
89
108
99
66
70
74
78
60
76
110
63
93
138
55
114
175
43
126
195
27
133
205
20
136
210
19
137
212
20
138
212
19
137
211
21
137
212
21
137
212
29
137
210
31
137
209
34
136
210
35
137
209
36
137
207
37
137
208
64
136
204
123
130
189
151
111
144
94
70
82
49
73
116
41
63
100
25
45
72
38
47
69
31
47
74
16
26
49
13
18
37
36
39
65
41
28
41
86
27
20
57
25
23
83
44
7
67
33
3
47
47
26
42
64
5
46
71
4
53
83
44
89
126
160
89
121
147
93
118
134
97
114
119
98
110
102
103
107
88
107
105
75
114
101
63
157
148
148
146
134
106
116
108
76
75
85
93
51
91
138
49
109
169
45
121
188
36
130
200
27
134
207
27
137
211
27
138
211
28
137
211
33
138
211
36
137
209
36
136
209
39
137
209
43
138
207
44
138
206
45
137
206
44
137
206
53
136
204
95
133
197
142
124
174
174
109
126
152
95
87
49
71
104
43
58
88
30
56
85
27
35
52
40
55
84
16
22
41
20
23
40
33
33
50
36
35
50
57
40
38
78
54
33
74
55
22
55
44
4
26
18
5
48
60
7
49
70
7
49
74
9
88
121
146
91
120
140
95
117
126
98
113
112
100
110
95
103
106
82
106
104
71
110
102
64
139
148
169
145
141
127
126
119
88
81
96
106
47
101
154
32
120
189
33
129
200
32
134
207
30
137
209
35
137
211
42
138
209
56
137
208
73
137
205
78
135
203
72
135
201
63
135
202
55
135
202
51
137
204
50
136
202
52
135
201
76
134
196
119
128
185
158
113
147
178
100
92
198
105
51
63
60
58
36
54
81
36
58
86
15
20
33
34
48
74
28
42
69
22
19
30
21
14
20
89
47
38
35
31
26
19
30
16
28
41
13
32
43
5
32
40
4
20
23
9
35
56
23
41
60
5
86
114
132
95
119
135
98
116
120
100
112
104
104
109
90
104
106
78
105
104
67
108
103
64
124
149
183
144
147
145
132
129
97
90
106
116
49
109
162
33
125
194
33
134
206
36
138
209
41
137
207
56
137
206
81
136
203
113
135
197
124
132
188
123
129
182
110
125
181
93
127
186
75
130
190
61
133
196
57
135
199
60
134
196
95
130
188
134
121
167
167
108
124
200
104
38
172
87
30
118
81
45
80
77
76
30
41
56
15
31
46
18
17
27
72
51
51
24
23
33
27
28
20
67
61
19
56
52
24
19
38
22
10
21
4
52
42
16
74
58
27
95
57
28
46
45
18
95
67
27
92
109
121
99
110
118
99
114
114
101
112
99
103
107
86
104
105
74
106
105
67
107
102
64
110
151
192
139
153
157
136
136
106
98
115
116
57
114
162
34
127
194
40
136
206
41
137
207
56
136
204
90
135
198
122
132
191
156
129
171
166
122
149
166
118
135
151
112
133
119
113
151
94
119
169
71
126
182
63
131
190
64
133
194
98
130
185
163
125
146
171
98
88
192
108
54
164
61
11
129
67
24
113
81
69
107
93
82
101
96
90
120
67
25
122
68
15
27
12
13
56
44
29
136
108
26
79
73
5
19
52
6
79
53
21
77
47
18
194
105
33
124
62
18
194
109
46
159
93
37
142
83
60
84
45
27
93
105
101
103
110
94
104
107
81
105
105
72
104
104
67
105
103
65
97
150
199
132
155
166
137
142
116
106
119
108
66
114
154
42
126
189
44
135
205
51
135
203
79
134
197
118
128
185
151
121
165
179
116
130
191
110
94
186
104
64
169
97
61
135
96
96
107
105
136
83
115
164
66
125
181
70
130
185
108
130
181
164
121
147
178
79
20
183
81
24
132
39
6
161
72
22
136
72
44
167
100
42
79
48
24
28
5
4
118
71
47
153
99
45
83
61
30
177
145
28
137
110
7
40
61
7
135
78
26
200
104
20
219
116
3
132
43
4
220
122
34
179
98
15
103
54
8
90
43
18
94
101
95
103
109
90
105
106
77
105
106
69
103
104
65
105
102
64
84
147
202
124
155
175
136
147
129
115
124
99
76
112
141
52
122
178
50
133
197
65
134
198
98
129
186
133
121
167
164
107
127
184
98
76
189
94
41
178
88
7
155
80
7
132
79
51
105
86
102
86
102
140
72
115
165
76
124
174
121
127
166
173
121
120
178
100
45
178
73
8
189
67
8
168
88
53
170
82
17
141
60
5
49
14
4
113
71
15
215
146
21
162
97
29
147
82
33
128
95
27
155
120
28
110
69
15
218
120
13
211
113
4
208
86
3
179
76
4
234
138
9
72
27
3
70
41
14
90
57
12
99
76
52
103
106
84
104
105
73
103
103
66
103
103
65
104
102
64
72
145
204
117
154
181
134
150
140
123
131
97
86
113
124
61
117
164
59
129
190
78
133
192
116
126
175
147
113
144
167
95
93
170
79
29
168
75
3
155
73
1
134
69
1
111
63
21
88
63
60
79
82
106
77
104
141
76
118
160
106
124
160
210
116
49
205
95
16
148
61
25
176
63
11
219
97
11
130
46
8
112
31
4
45
19
4
109
66
6
248
201
57
193
120
6
199
91
4
154
63
2
153
70
15
205
121
7
244
140
2
220
91
3
208
82
21
197
92
18
187
92
3
75
27
2
73
32
5
45
20
3
54
45
37
93
94
73
102
103
69
103
102
66
102
102
66
102
102
64
69
139
202
112
152
184
134
154
150
129
139
102
96
115
110
69
113
149
62
126
179
87
131
185
133
124
166
162
110
128
175
90
66
167
72
3
151
64
1
135
60
1
110
52
1
88
44
1
73
44
23
73
63
72
72
89
115
75
110
144
84
121
157
169
121
112
132
55
9
177
89
41
131
51
7
214
88
19
176
63
18
120
49
5
79
42
12
57
28
11
143
93
6
229
149
8
224
105
4
209
92
2
192
75
2
193
64
4
251
142
2
216
69
4
245
139
4
143
56
2
110
32
2
174
103
8
212
130
36
65
32
9
45
22
4
87
85
61
99
100
67
99
100
68
100
100
68
99
99
64
88
129
188
115
144
176
137
154
146
137
147
106
107
122
97
77
110
131
69
119
164
94
129
177
141
123
157
170
110
118
184
91
56
182
76
1
160
67
1
132
55
1
104
43
2
74
33
1
53
28
8
58
48
52
66
77
95
76
101
125
191
128
91
215
124
29
207
95
15
193
72
7
175
67
5
186
67
8
191
94
35
157
67
4
194
126
23
168
98
19
188
104
21
210
127
24
253
162
3
251
142
3
230
111
4
200
72
2
245
126
4
242
99
2
248
149
3
152
55
3
150
60
4
250
159
8
199
123
8
61
24
2
80
70
49
95
97
71
94
96
68
94
96
67
95
96
67
96
96
66
114
110
155
129
130
151
144
149
128
143
150
102
117
129
86
82
107
114
72
113
148
97
124
165
146
121
146
180
112
106
193
94
45
189
80
0
179
73
1
151
63
1
123
52
1
82
38
1
55
26
2
54
39
31
66
67
71
78
93
105
167
115
93
218
118
42
181
77
11
218
76
22
218
73
8
200
62
4
214
96
6
162
63
7
166
89
4
185
105
3
223
116
2
235
117
2
241
129
3
246
139
4
254
149
2
239
124
2
242
119
3
253
143
2
247
151
2
162
51
3
198
96
4
237
140
18
88
45
14
91
77
57
79
67
46
58
51
37
66
67
53
89
93
69
91
94
69
93
95
69
145
93
93
149
111
105
152
135
100
147
143
87
122
129
77
89
107
95
76
107
128
102
119
152
146
119
137
180
109
100
197
95
45
194
82
1
183
75
1
170
73
1
144
61
1
105
46
1
79
37
2
62
39
18
70
61
53
80
84
85
201
137
84
224
130
52
182
78
6
185
93
44
159
53
8
215
70
11
217
84
5
138
31
5
190
100
8
224
117
4
237
128
9
230
131
5
212
126
3
242
131
2
211
115
9
218
112
4
245
133
14
251
147
3
242
124
2
183
78
5
251
161
2
221
127
3
81
26
4
79
31
6
60
27
3
48
28
10
62
60
45
88
91
70
91
95
71
93
95
71
156
80
24
152
90
46
151
115
65
147
135
75
125
126
69
97
106
80
84
100
108
104
111
135
147
117
131
173
107
98
193
94
40
196
82
1
190
78
1
180
77
1
158
68
1
134
61
1
110
51
1
78
43
8
74
57
36
78
77
65
196
135
65
241
159
44
238
136
21
214
82
9
176
64
6
182
59
7
179
92
43
134
36
6
227
128
26
208
162
91
242
213
120
228
141
34
199
104
3
243
131
2
191
108
3
146
70
2
195
83
3
216
103
3
221
88
4
246
155
3
253
168
3
163
87
20
101
32
2
87
31
1
57
24
3
40
18
5
51
40
27
88
92
74
91
94
74
92
94
73
154
74
1
142
77
23
140
99
51
142
124
64
128
127
67
104
109
68
87
94
85
107
101
108
151
110
109
184
108
82
194
93
26
192
81
0
196
81
1
191
79
1
176
76
0
155
71
1
121
57
1
97
50
3
79
54
24
77
70
47
175
105
48
184
96
21
209
128
36
233
120
8
223
77
9
190
55
4
187
89
9
146
70
9
234
165
35
245
205
66
252
210
16
253
201
7
250
158
3
254
136
1
245
129
1
197
96
1
186
81
1
187
68
2
172
67
3
249
152
3
253
168
2
164
83
4
176
83
3
130
58
2
78
30
3
63
44
28
79
81
68
79
82
70
89
93
78
89
94
75
159
74
1
140
70
5
127
88
34
133
119
57
133
136
69
113
120
65
94
94
63
116
94
79
163
108
87
194
109
68
207
98
16
201
84
1
198
81
1
192
80
1
189
82
1
166
76
1
131
61
1
103
51
2
74
47
13
96
72
43
126
85
45
201
93
13
212
97
14
168
67
6
234
123
41
230
91
29
205
105
38
212
128
14
247
166
4
252
174
2
254
175
1
253
182
2
252
157
2
244
141
3
222
132
3
212
108
1
196
84
2
163
59
2
126
38
2
195
86
2
241
148
3
228
136
5
219
125
5
175
94
16
131
72
25
67
45
29
47
27
13
39
31
25
87
90
78
87
92
79
171
81
1
141
67
1
107
72
14
127
117
49
139
141
67
122
129
65
101
98
53
124
89
53
171
106
71
200
109
56
212
99
6
211
88
1
206
84
1
198
82
0
190
82
1
171
77
1
141
66
1
104
49
1
68
41
9
218
123
40
219
125
42
214
119
15
237
98
6
193
81
26
208
60
3
234
100
15
234
126
6
237
143
6
247
144
2
244
155
4
252
178
2
253
187
5
252
187
48
222
135
5
150
82
3
190
96
3
191
114
10
133
65
3
127
39
2
186
89
3
199
116
12
174
76
3
225
129
3
240
139
5
187
101
5
120
62
7
102
58
10
74
74
64
82
91
81
82
90
80
172
83
1
140
68
1
112
64
3
126
102
37
139
126
57
129
121
60
106
96
51
121
85
45
174
101
51
210
108
24
219
100
1
207
89
1
206
86
0
205
86
1
195
84
1
177
80
1
143
65
1
102
47
1
70
39
6
159
87
18
246
130
6
228
123
7
236
109
5
206
110
32
188
61
4
228
86
7
207
84
4
210
96
3
208
102
4
234
135
4
249
172
3
253
202
43
253
199
52
249
174
22
226
121
3
216
103
3
216
119
3
141
71
2
126
49
2
207
125
4
214
131
3
180
90
3
231
138
3
149
67
3
117
57
14
59
29
3
78
79
76
78
87
88
76
87
86
78
88
86
172
84
0
142
69
1
114
59
1
114
76
18
131
101
44
129
106
54
104
86
45
123
81
34
178
100
17
216
111
2
229
109
0
221
98
1
207
87
1
199
85
1
198
88
0
188
85
1
146
66
2
107
49
1
68
39
8
62
49
26
145
85
36
248
130
11
239
114
3
232
117
5
177
64
3
220
91
32
227
96
7
223
121
11
226
121
4
232
132
3
236
154
2
229
147
2
231
132
2
237
127
2
231
125
2
221
115
3
195
91
4
185
85
3
140
64
3
137
60
2
169
85
2
112
40
2
129
49
3
169
88
5
170
105
25
69
32
5
56
31
15
45
29
18
55
56
60
77
88
91
163
83
1
142
71
1
119
61
1
117
69
4
130
90
29
128
97
43
108
84
41
126
85
32
184
102
4
224
114
1
235
113
1
238
109
1
225
97
1
211
90
1
203
91
1
180
82
1
149
69
1
122
59
1
104
65
28
197
127
34
169
106
38
235
150
22
251
163
5
248
122
5
218
95
9
169
87
35
199
80
9
183
92
8
214
105
3
222
106
3
201
116
4
210
125
3
234
142
2
246
143
2
253
180
3
253
168
4
205
124
48
224
117
5
198
92
2
151
59
2
116
46
3
124
45
1
136
60
2
119
55
2
83
39
1
60
29
4
54
28
4
59
51
50
72
88
99
75
90
101
167
90
1
148
79
1
129
69
1
117
68
2
129
96
27
132
112
47
115
107
48
125
96
34
179
103
5
227
117
1
242
116
0
244
110
1
238
104
1
231
101
1
213
93
1
186
82
1
158
74
1
120
57
2
148
93
19
243
156
10
224
140
28
198
111
9
242
150
6
237
134
22
244
111
6
196
85
5
174
59
5
190
94
6
220
98
5
169
68
4
197
123
3
238
166
3
241
136
2
247
153
2
253
177
2
253
172
2
244
166
51
198
100
12
167
56
3
105
34
3
108
32
3
124
48
1
125
52
2
126
58
2
134
74
2
155
92
4
62
35
16
63
72
85
61
80
95
74
92
109
160
90
1
148
83
1
138
77
1
115
67
1
126
97
21
133
122
45
117
124
53
122
105
41
169
102
6
214
110
1
237
115
1
239
107
1
240
103
1
241
105
1
222
96
1
204
90
1
173
78
1
128
60
1
106
55
5
192
122
14
244
141
7
227
126
4
215
107
4
207
110
18
173
74
9
230
101
9
190
85
29
212
101
5
224
117
5
171
68
4
162
74
4
188
98
6
230
130
3
246
156
3
237
136
2
226
139
3
247
163
3
149
62
2
170
79
3
226
165
4
151
81
3
151
86
4
179
120
4
173
100
3
150
81
3
121
65
2
56
27
2
50
29
2
35
26
24
71
92
115
143
83
1
139
79
1
127
70
1
105
57
1
119
87
13
124
116
43
116
126
53
122
113
45
183
116
5
219
122
1
237
124
1
232
110
1
225
98
1
230
100
1
224
97
1
218
97
1
184
83
1
155
70
1
118
58
4
98
62
30
171
114
37
249
168
5
244
123
2
231
127
4
154
58
4
199
79
10
235
116
11
205
102
9
233
131
37
200
89
7
177
83
6
195
100
6
198
100
3
224
128
2
213
121
5
190
92
3
227
135
4
222
124
20
221
126
3
245
180
3
139
79
3
201
129
3
250
200
4
192
138
12
95
45
3
106
64
18
72
37
1
53
29
1
46
37
32
69
96
123
117
66
1
115
65
1
108
58
1
93
46
1
100
66
5
118
106
38
117
123
52
119
120
50
190
124
12
231
131
1
245
134
1
237
124
1
218
103
1
202
89
1
209
91
1
211
94
1
198
91
1
184
86
1
157
88
22
218
151
28
240
185
33
244
212
33
251
203
5
248
143
6
194
82
3
185
59
6
240
131
6
177
76
7
226
114
13
228
140
38
222
126
27
200
98
3
185
87
3
225
143
3
248
165
3
217
121
4
252
189
2
231
134
3
200
97
5
207
120
5
126
58
2
139
67
1
153
88
2
142
84
3
85
40
2
60
34
3
64
34
1
63
35
1
47
37
34
68
98
131
